<svg width="88" height="88" viewBox="0 0 88 88" fill="none" xmlns="http://www.w3.org/2000/svg">
<g filter="url(#filter0_d_23_307)">
<path d="M29.3333 18.3333L22 33M58.6667 18.3333L66 33" stroke="white" stroke-width="2" stroke-linecap="round"/>
</g>
<g filter="url(#filter1_d_23_307)">
<path fill-rule="evenodd" clip-rule="evenodd" d="M80.6666 30.3333V35.6666C80.6666 36.2189 80.2189 36.6666 79.6666 36.6666H70.4688C70.0001 36.6666 69.5943 36.9922 69.4926 37.4497L62.6813 68.1005C62.478 69.0156 61.6664 69.6666 60.729 69.6666H27.271C26.3336 69.6666 25.522 69.0156 25.3186 68.1005L18.5073 37.4497C18.4057 36.9922 17.9998 36.6666 17.5311 36.6666H8.33331C7.78103 36.6666 7.33331 36.2189 7.33331 35.6666V30.3333C7.33331 29.781 7.78103 29.3333 8.33331 29.3333H79.6666C80.2189 29.3333 80.6666 29.781 80.6666 30.3333ZM37.6667 44C37.6667 43.4477 37.2189 43 36.6667 43C36.1144 43 35.6667 43.4477 35.6667 44V55C35.6667 55.5523 36.1144 56 36.6667 56C37.2189 56 37.6667 55.5523 37.6667 55V44ZM52.3333 44C52.3333 43.4477 51.8856 43 51.3333 43C50.781 43 50.3333 43.4477 50.3333 44L50.3333 55C50.3333 55.5523 50.781 56 51.3333 56C51.8856 56 52.3333 55.5523 52.3333 55L52.3333 44Z" fill="white"/>
</g>
<defs>
<filter id="filter0_d_23_307" x="17.9998" y="15.3331" width="54.0005" height="24.6671" filterUnits="userSpaceOnUse" color-interpolation-filters="sRGB">
<feFlood flood-opacity="0" result="BackgroundImageFix"/>
<feColorMatrix in="SourceAlpha" type="matrix" values="0 0 0 0 0 0 0 0 0 0 0 0 0 0 0 0 0 0 127 0" result="hardAlpha"/>
<feOffset dx="1" dy="2"/>
<feGaussianBlur stdDeviation="2"/>
<feComposite in2="hardAlpha" operator="out"/>
<feColorMatrix type="matrix" values="0 0 0 0 0 0 0 0 0 0 0 0 0 0 0 0 0 0 0.5 0"/>
<feBlend mode="normal" in2="BackgroundImageFix" result="effect1_dropShadow_23_307"/>
<feBlend mode="normal" in="SourceGraphic" in2="effect1_dropShadow_23_307" result="shape"/>
</filter>
<filter id="filter1_d_23_307" x="4.33331" y="27.3333" width="81.3333" height="48.3333" filterUnits="userSpaceOnUse" color-interpolation-filters="sRGB">
<feFlood flood-opacity="0" result="BackgroundImageFix"/>
<feColorMatrix in="SourceAlpha" type="matrix" values="0 0 0 0 0 0 0 0 0 0 0 0 0 0 0 0 0 0 127 0" result="hardAlpha"/>
<feOffset dx="1" dy="2"/>
<feGaussianBlur stdDeviation="2"/>
<feComposite in2="hardAlpha" operator="out"/>
<feColorMatrix type="matrix" values="0 0 0 0 0 0 0 0 0 0 0 0 0 0 0 0 0 0 0.5 0"/>
<feBlend mode="normal" in2="BackgroundImageFix" result="effect1_dropShadow_23_307"/>
<feBlend mode="normal" in="SourceGraphic" in2="effect1_dropShadow_23_307" result="shape"/>
</filter>
</defs>
</svg>
